<svg width="60" height="22" viewBox="0 0 60 22" fill="none" xmlns="http://www.w3.org/2000/svg">
<path d="M6.61845 21.5405C4.8307 21.469 3.36805 20.976 2.22438 20.0604C2.00611 19.8855 1.48601 19.361 1.31152 19.1398C0.847748 18.5522 0.532439 17.9802 0.32213 17.3456C-0.325007 15.3923 0.00804831 12.829 1.27479 10.0158C2.35938 7.60744 4.03294 5.21878 6.95273 1.9105C7.38283 1.42369 8.66365 0 8.67192 0C8.675 0 8.60518 0.121851 8.51732 0.270244C7.75814 1.55172 7.10855 3.06117 6.75467 4.36795C6.18621 6.46478 6.25478 8.26423 6.95549 9.65953C7.43885 10.6208 8.26753 11.4534 9.19937 11.9137C10.8307 12.7192 13.2191 12.7858 16.1358 12.1087C16.3366 12.0618 26.2874 9.39979 38.2488 6.193C50.2102 2.9859 59.9985 0.364021 60 0.36618C60.0034 0.368956 32.2102 12.3539 17.7824 18.5716C15.4975 19.556 14.8865 19.8046 13.8123 20.1847C11.0664 21.1565 8.60671 21.6201 6.61845 21.5405Z" fill="#C1EA33"/>
</svg>
