<svg width="88" height="31" viewBox="0 0 88 31" fill="none" xmlns="http://www.w3.org/2000/svg">
<path d="M9.63918 30.9874C7.03548 30.8844 4.90526 30.1753 3.2396 28.8581C2.92172 28.6065 2.16424 27.852 1.91012 27.5338C1.23467 26.6884 0.77545 25.8657 0.469153 24.9528C-0.473344 22.1427 0.0117216 18.4553 1.85661 14.4084C3.43622 10.9438 5.87362 7.50753 10.126 2.74837C10.7524 2.04807 12.6178 0 12.6299 0C12.6344 0 12.5327 0.175291 12.4047 0.388763C11.299 2.23224 10.353 4.40369 9.83757 6.28357C9.00965 9.29999 9.10952 11.8886 10.13 13.8958C10.834 15.2787 12.0409 16.4765 13.3981 17.1386C15.7739 18.2973 19.2524 18.3932 23.5003 17.4191C23.7928 17.3516 38.2852 13.5222 55.706 8.90902C73.1267 4.29541 87.3824 0.523667 87.3846 0.526773C87.3895 0.530767 46.9113 17.7719 25.8985 26.7164C22.5707 28.1325 21.6808 28.4902 20.1164 29.0369C16.1172 30.4349 12.5349 31.1019 9.63918 30.9874Z" fill="#EEEDF0"/>
</svg>
