<svg width="21" height="20" viewBox="0 0 21 20" fill="none" xmlns="http://www.w3.org/2000/svg">
<g clip-path="url(#clip0_2_30)">
<path d="M8.00001 18.3333C8.46024 18.3333 8.83334 17.9602 8.83334 17.5C8.83334 17.0398 8.46024 16.6667 8.00001 16.6667C7.53977 16.6667 7.16667 17.0398 7.16667 17.5C7.16667 17.9602 7.53977 18.3333 8.00001 18.3333Z" stroke="white" stroke-width="1.5" stroke-linecap="round" stroke-linejoin="round"/>
<path d="M17.1667 18.3333C17.6269 18.3333 18 17.9602 18 17.5C18 17.0398 17.6269 16.6667 17.1667 16.6667C16.7064 16.6667 16.3333 17.0398 16.3333 17.5C16.3333 17.9602 16.7064 18.3333 17.1667 18.3333Z" stroke="white" stroke-width="1.5" stroke-linecap="round" stroke-linejoin="round"/>
<path d="M1.33333 0.833344H4.66666L6.9 11.9917C6.9762 12.3753 7.18492 12.72 7.48962 12.9653C7.79431 13.2105 8.17558 13.3408 8.56666 13.3333H16.6667C17.0577 13.3408 17.439 13.2105 17.7437 12.9653C18.0484 12.72 18.2571 12.3753 18.3333 11.9917L19.6667 5.00001H5.5" stroke="white" stroke-width="1.5" stroke-linecap="round" stroke-linejoin="round"/>
</g>
<defs>
<clipPath id="clip0_2_30">
<rect width="20" height="20" fill="white" transform="translate(0.5)"/>
</clipPath>
</defs>
</svg>
